# xmcd
#
# Track frame offsets:
#	150
#	17116
#	31325
#	46622
#	64256
#	81182
#	97992
#	116843
#	133982
#	149691
#	165629
#	183341
#	200663
#	216727
#	233363
#	249687
#	265294
#
# Disc length: 3742 seconds
#
# Revision: 0
# Processed by: cddbd v1.5.2PL0 Copyright (c) Steve Scherf et al.
# Submitted via: EZCDAudioConverter 3.1.2.1
#
DISCID=fd0e9c11
DTITLE=Blue Box - XX lecie
DYEAR=2017
DGENRE=Disco Polo
TTITLE0=Zakochane serca
TTITLE1=Moje złotko
TTITLE2=Uwierzyłem w miłość
TTITLE3=Rozwódka
TTITLE4=Wspólna noc
TTITLE5=Krysia
TTITLE6=Sukni biel
TTITLE7=Mam bzika
TTITLE8=Nie pozwól
TTITLE9=Tak wiele 2018
TTITLE10=Dam Ci swoje ciało
TTITLE11=Chłopak z wioski
TTITLE12=Mamy lato
TTITLE13=Jedyna
TTITLE14=Śliczna Ula Ula la la
TTITLE15=Oczy jak diamenty
TTITLE16=Polska gola
EXTD=
EXTT0=
EXTT1=
EXTT2=
EXTT3=
EXTT4=
EXTT5=
EXTT6=
EXTT7=
EXTT8=
EXTT9=
EXTT10=
EXTT11=
EXTT12=
EXTT13=
EXTT14=
EXTT15=
EXTT16=
PLAYORDER=
